<?xml version="1.0" encoding="utf-8"?>
<!-- Generator: Adobe Illustrator 17.1.0, SVG Export Plug-In . SVG Version: 6.00 Build 0)  -->
<!DOCTYPE svg PUBLIC "-//W3C//DTD SVG 1.1//EN" "http://www.w3.org/Graphics/SVG/1.1/DTD/svg11.dtd">
<svg version="1.1" xmlns="http://www.w3.org/2000/svg" xmlns:xlink="http://www.w3.org/1999/xlink" x="0px" y="0px"
	 viewBox="0 0 612 792" enable-background="new 0 0 612 792" xml:space="preserve">
<g id="Layer_3" display="none">
	<g display="inline">
		<g>
			<g>
				<path fill="#ED1E26" d="M402.9,318.1c-48.4-50.7-128.6-52.5-179.3-4.2c-50.7,48.4-52.5,128.6-4.2,179.3
					c48.4,50.7,128.6,52.5,179.3,4.2C449.4,449,451.2,368.8,402.9,318.1z M368.9,466.2c-33.4,31.9-86.4,30.7-118.3-2.8
					C218.7,430,220,377,253.4,345.1c33.4-31.9,86.4-30.7,118.3,2.8C403.6,381.3,402.3,434.3,368.9,466.2z"/>
			</g>
		</g>
		
			<rect x="290.4" y="294.7" transform="matrix(0.7234 -0.6904 0.6904 0.7234 -194.0079 327.0232)" fill="#ED1E26" width="41.5" height="221.9"/>
	</g>
</g>
<g id="Layer_4">
</g>
<g id="Layer_1">
	<path fill="#ED1E26" d="M306,96C140.3,96,6,230.3,6,396s134.3,300,300,300s300-134.3,300-300S471.7,96,306,96z M94,396
		c0-45.1,14.1-86.9,38.1-121.2l274.3,308c-29.9,16.1-64,25.2-100.3,25.2C188.9,608,94,513.1,94,396z M482.8,513L210.2,206.8
		C239,192.2,271.5,184,306,184c117.1,0,212,94.9,212,212C518,439.3,505,479.5,482.8,513z"/>
	<linearGradient id="SVGID_1_" gradientUnits="userSpaceOnUse" x1="279.8566" y1="595.9937" x2="284.5989" y2="458.4659">
		<stop  offset="0" style="stop-color:#EF3A35"/>
		<stop  offset="7.325006e-002" style="stop-color:#EE5C36"/>
		<stop  offset="0.1979" style="stop-color:#ED8138"/>
		<stop  offset="0.326" style="stop-color:#EE9D38"/>
		<stop  offset="0.4551" style="stop-color:#EFB538"/>
		<stop  offset="0.5858" style="stop-color:#F0C736"/>
		<stop  offset="0.7186" style="stop-color:#F0D334"/>
		<stop  offset="0.8549" style="stop-color:#F0DB33"/>
		<stop  offset="1" style="stop-color:#F1DD32"/>
	</linearGradient>
	<ellipse fill="url(#SVGID_1_)" cx="279.9" cy="594.2" rx="111.4" ry="46"/>
	<g>
		
			<linearGradient id="SVGID_2_" gradientUnits="userSpaceOnUse" x1="344.4239" y1="560.2728" x2="351.7203" y2="202.7968" gradientTransform="matrix(-1 0 0 1 631.9414 0)">
			<stop  offset="0" style="stop-color:#EF3A35"/>
			<stop  offset="7.325006e-002" style="stop-color:#EE5C36"/>
			<stop  offset="0.1979" style="stop-color:#ED8138"/>
			<stop  offset="0.326" style="stop-color:#EE9D38"/>
			<stop  offset="0.4551" style="stop-color:#EFB538"/>
			<stop  offset="0.5858" style="stop-color:#F0C736"/>
			<stop  offset="0.7186" style="stop-color:#F0D334"/>
			<stop  offset="0.8549" style="stop-color:#F0DB33"/>
			<stop  offset="1" style="stop-color:#F1DD32"/>
		</linearGradient>
		<path fill="url(#SVGID_2_)" d="M161.8,457c2.1,31.9,46.3,92.6,131.4,91.2c79.7-2.5,131.7-53.8,112.5-101.7
			c-8.4,17.3-16.4,22.3-22,25.4c11.4-19.9,7.7-44.2-1-64.1c0.7,8.9-10.2,18-19.8,14c-9.3-3.9-3.8-13.6-4.1-21.4
			c-0.6-18-10.1-26.7-17.1-43.4c-4.6-10.7,6.4-36.4-9.8-42.8c5.4,20.2-12.5,15.5-18.1,56c-2.1-36.5-20.7-39.5-21.8-63.3
			c-0.4-15,11.2-34.1,12.4-49c1-14.6-3-35.2-22.2-35.3c17.9,8.3,12.8,30.4,2.3,43.2c-6.9,8.3-18.1,12.7-27.8,18.4
			c-16.1,9.5-20.8,22.6-24.4,38.1c-8.9-10.6-4.8-29.2,8.6-43.9c-10.4,3.3-48.3,11.1-37.8,62.2c9.6,38.5,0.9,41.4,3.5,65.5
			c-23.4-17.3-5.2-52.2-31.1-67.7c0,11.9,2.4,23.7-1,35.5c-3.5,12.2-11.3,23.3-13.4,35.9c-4.1,24.5,8.5,45.6,19.9,66.8
			C176.8,474.3,167.8,468.3,161.8,457z M205.1,472.8c18.7,7.2,14.7-13.4,2.9-35.6c17.2-3.1,39.8,34.4,33.7,17.2
			c-9.5-25.9,10.4-54.6,32.3-64c-1.1,2.1-10.3,27.8,2.1,48c7.8,12.5,21.8,17.6,24.4-1.1c19.9,10,37,31.9,40.5,57.3
			c1.6,13-16.5,47.6-80.5,35.5C234.3,525,200,503,205.1,472.8z"/>
		
			<linearGradient id="SVGID_3_" gradientUnits="userSpaceOnUse" x1="84.294" y1="503.4756" x2="140.315" y2="160.8844" gradientTransform="matrix(-0.8691 -0.4946 -0.4946 0.8691 578.2239 192.5753)">
			<stop  offset="0" style="stop-color:#EF3A35"/>
			<stop  offset="7.325006e-002" style="stop-color:#EE5C36"/>
			<stop  offset="0.1979" style="stop-color:#ED8138"/>
			<stop  offset="0.326" style="stop-color:#EE9D38"/>
			<stop  offset="0.4551" style="stop-color:#EFB538"/>
			<stop  offset="0.5858" style="stop-color:#F0C736"/>
			<stop  offset="0.7186" style="stop-color:#F0D334"/>
			<stop  offset="0.8549" style="stop-color:#F0DB33"/>
			<stop  offset="1" style="stop-color:#F1DD32"/>
		</linearGradient>
		<path fill="url(#SVGID_3_)" d="M347.7,354.2c5.9-11.5,2.7-22.8-2-42.6c-5.2-25.3,23-35.8,22.8-35c-21.6,15.4-4.7,29.1-1,44.7
			C373.4,343.5,352.1,351,347.7,354.2z"/>
		
			<linearGradient id="SVGID_4_" gradientUnits="userSpaceOnUse" x1="318.7295" y1="526.2203" x2="377.2566" y2="168.3032" gradientTransform="matrix(-1 0 0 1 631.9414 0)">
			<stop  offset="0" style="stop-color:#EF3A35"/>
			<stop  offset="7.325006e-002" style="stop-color:#EE5C36"/>
			<stop  offset="0.1979" style="stop-color:#ED8138"/>
			<stop  offset="0.326" style="stop-color:#EE9D38"/>
			<stop  offset="0.4551" style="stop-color:#EFB538"/>
			<stop  offset="0.5858" style="stop-color:#F0C736"/>
			<stop  offset="0.7186" style="stop-color:#F0D334"/>
			<stop  offset="0.8549" style="stop-color:#F0DB33"/>
			<stop  offset="1" style="stop-color:#F1DD32"/>
		</linearGradient>
		<path fill="url(#SVGID_4_)" d="M271,266.9c0,0.4,0,0.9,0,1.3C270.6,268,270.7,267.6,271,266.9z"/>
	</g>
	<g>
		
			<linearGradient id="SVGID_5_" gradientUnits="userSpaceOnUse" x1="320.8396" y1="655.7948" x2="323.5313" y2="216.1648" gradientTransform="matrix(-1 0 0 1 631.9414 0)">
			<stop  offset="0" style="stop-color:#EF3A35"/>
			<stop  offset="7.325006e-002" style="stop-color:#EE5C36"/>
			<stop  offset="0.1979" style="stop-color:#ED8138"/>
			<stop  offset="0.326" style="stop-color:#EE9D38"/>
			<stop  offset="0.4551" style="stop-color:#EFB538"/>
			<stop  offset="0.5858" style="stop-color:#F0C736"/>
			<stop  offset="0.7186" style="stop-color:#F0D334"/>
			<stop  offset="0.8549" style="stop-color:#F0DB33"/>
			<stop  offset="1" style="stop-color:#F1DD32"/>
		</linearGradient>
		<path fill="url(#SVGID_5_)" d="M321.9,272.6c8-19.5-15.6-25.2-25.8-36.6c-12-13.1-11.8-42.8,12.7-47.3
			c-9.8,13.5-3.4,22.9,5.2,33.2c10.7,12.8,17,19.7,14,37C325.9,263.5,323.9,268.1,321.9,272.6z"/>
		
			<linearGradient id="SVGID_6_" gradientUnits="userSpaceOnUse" x1="350.6441" y1="627.3962" x2="353.1397" y2="219.8046" gradientTransform="matrix(-1 0 0 1 631.9414 0)">
			<stop  offset="0" style="stop-color:#EF3A35"/>
			<stop  offset="7.325006e-002" style="stop-color:#EE5C36"/>
			<stop  offset="0.1979" style="stop-color:#ED8138"/>
			<stop  offset="0.326" style="stop-color:#EE9D38"/>
			<stop  offset="0.4551" style="stop-color:#EFB538"/>
			<stop  offset="0.5858" style="stop-color:#F0C736"/>
			<stop  offset="0.7186" style="stop-color:#F0D334"/>
			<stop  offset="0.8549" style="stop-color:#F0DB33"/>
			<stop  offset="1" style="stop-color:#F1DD32"/>
		</linearGradient>
		<path fill="url(#SVGID_6_)" d="M235.4,651.8c-7.2-6-13.9-13.1-20.1-20.9c-14-18,0.3-21.9,24.1-7.3c22.7,13.9,52.9,25,84.9,4.6
			c56.8-34.5,65.7-22.5,47,6.9c28.6-23.4,76.9-96,21-169.4c5.4,24.8,14.1,53.1-19.7,67.8c-6-14.9,14.2-25.9,6.1-50.2
			c-7.4-23.4-19.1-27.2-23.2-44.4c-7.8-34.1,19.9-56.9,55.8-65c-19.1-0.9-66-4.3-90.7,52.1c-12-54.8,44-78,50.9-119.3
			c5.2-30.7-4.9-75.5-42.9-87.1c34,32.4,0,92.7-30,118.3C253,375,193.1,409.6,202.8,479.5c-16.7-13.2-17.2-73.9,0-107.3
			C104.3,469.6,137,616.9,235.4,651.8z M225.7,555.1c52.3,89,112.7,24.3,112,26c3,22.4-14.3,46.9-53.6,43.3
			C227.1,618.8,223.6,574.3,225.7,555.1z"/>
	</g>
	<path d="M359.3,351.5c-18.7-7.6-39.3-11.6-59.3-13.3c-31.6-2.7-68,0.1-96.2,15.7c-20.5,11.3-43.2,27-52.9,49
		c-2.7,6.1-3,9.1-7.3,13.9c-5.6,6.2-11.4,12.3-17.3,18.2c-16.9,16.9-35.1,32.8-55.3,45.7C52.6,492.4,29.8,504,7.4,500.3
		c19,15.2,51.5,5.7,71-2.2c15.2-6.2,29.6-14.4,43.4-23.5c8.6-5.7,16.9-11.7,25-18c3.4-2.4,7.9-5.2,12.3-3.9
		c4.3,1.3,5.5,7.1,7.3,10.7c1.7,3.4,3.7,6.7,5.9,9.8c2.5,3.3,5,3.6,2.2,6.9c-2.1,2.4-3.8,5.4-6.7,6.7c-6.2,2.8-5.4,7.1-6.8,12.6
		c-1,3.7-1.3,7.8-0.8,11.6c0.8,5.7,4.1,7.1,7.1,11.2c4.8,6.5,9.6,12.9,14.5,19.3c6.5,8.4,12.9,16.9,19.9,24.9
		c4.8,5.4,9.5,6.6,16.6,8.6c13.2,3.8,26.8,5.2,39.9,9.4c6.8,2.2,15.8,2.3,20.2-4.2c2.9-4.2,4.7-12.9,1.4-17.7
		c-2.2-3.2-6.2-4-9.9-3.9c-3.5,0.1-6.9,0.8-10.2,1.8c-4.3,1.3-3.8,1.6-7.1-0.6c-2.5-1.7-5.2-3.2-8.1-4c-1.2-0.3-8,0.2-8.2,0.1
		c-3.6-3.4-6.6-8.1-7.6-13c-1.7-8.8,6-15.1,10.1-22c3.1-5.1,7.1-11.9,7.1-18.1c13.5,3.9,28.6,6.1,42.5,3.5
		c2.1,17.2,4.2,34.3,6.3,51.5c1.1,9.3,0.2,24.1,7.7,30.8c7.5,6.7,17.6,6,26.9,7.4c6.3,1,15.3,0.6,16.8-7.2
		c0.7-3.6,0.1-11.9-3.6-13.4c-1.3-0.5-10.4-3.2-10.4-4.3c-0.4-7.5-0.9-15-1.3-22.5c-0.6-10.3-1.2-20.6-1.9-30.9
		c-0.1-1.4-0.8-4.1-0.3-5.4c1-2.7,5.2-5.8,7.2-7.8c5.8-5.9,15.8-17.7,25-16.9c2.2,0.2,24.6,2,24.5,2.3c-1,17.8,17.3,31.6,28.5,43.5
		c7.6,8.1,15.2,16.3,22.7,24.4c2.7,2.9,5.5,5.9,8.2,8.8c0.8,0.8,2.9,2.4,3.3,3.6c4.6,16.8,24,16.7,37.3,12.2
		c6.3-2.2,12.7-6.8,8.1-13.8c-3.5-5.4-9.6-9.2-15-12.5c-2.6-1.6-3.9-1-6.9-0.6c-0.6,0.1-3.2,0.9-3.6,0.3
		c-8.3-15.2-16.6-30.5-25-45.7c-4.4-8.1-8.8-16.2-13.3-24.3c-0.8-1.5-1.7-3-2.5-4.6c-2.3-4.3,2.2-7.9,2.3-12.4
		c0.1-5.2,0.7-10.6,6.2-12.7c2.3-0.9,7.5-5.8,9.5-5c4.9,2,9.6,3.9,14.9,4.6c9.3,1.2,15.2-2.3,23.6-5c9.3-3,2.6-18.6,7.3-22.8
		c7.8-6.9,11.8-13.7,14.9-24c3.6-12,1.8-22,0.2-34c-1-7.5,4-13.7,7.8-20.1c6.7-11.3,14.3-20.6,24.8-28.4c4-3,0.6-4.7-1.9-8.4
		c-1-1.5-6.5-1.9-8.1-2.2c-8.3-1.8-16.9-3.2-25.4-2.6c-4.1,0.3-8.4,1-11.9,3.2c-3.1,1.9-4.6,0.6-8.3-0.5c-3.2-0.9-13.2-1.6-14.5-4.7
		c-1.3-3-1.2-6.5-2.4-9.5c-3.7-9.6-13.6-4.7-17.9,1.5c-1.3,1.9-3,4.9-5.7,4.6c-7.4-0.7-14.9-0.9-22.3,0c-7.9,1-15.4,4.5-22.7,7.6
		c-10.6,4.6-17.4,12-26,19.2C363.9,335.7,357.8,340.7,359.3,351.5z"/>
	<g>
		
			<linearGradient id="SVGID_7_" gradientUnits="userSpaceOnUse" x1="356.7913" y1="654.855" x2="339.1643" y2="308.9252" gradientTransform="matrix(0.974 0 0 1 -65.6706 0)">
			<stop  offset="0" style="stop-color:#EF3A35"/>
			<stop  offset="7.325006e-002" style="stop-color:#EE5C36"/>
			<stop  offset="0.1979" style="stop-color:#ED8138"/>
			<stop  offset="0.326" style="stop-color:#EE9D38"/>
			<stop  offset="0.4551" style="stop-color:#EFB538"/>
			<stop  offset="0.5858" style="stop-color:#F0C736"/>
			<stop  offset="0.7186" style="stop-color:#F0D334"/>
			<stop  offset="0.8549" style="stop-color:#F0DB33"/>
			<stop  offset="1" style="stop-color:#F1DD32"/>
		</linearGradient>
		<path fill="url(#SVGID_7_)" d="M351.1,584.4c-15.6,27-57.9,44.6-81.2,33.7c19.9-15.2,26.5-46.3,9.6-74
			c-12.5-20.1-18.3-22.6-18.2-43.3c-1.5,11.4-6.8,22-7.5,34.1c-0.8,14.2,2.2,25.8,3.5,39c-8.1-0.4-13.7-4.6-15.7-11.4
			c-6.5,16.8-3.5,33.2,8.7,44.8c-3.9,6.7-83.1,1.3-51.9-92.6c9.9-34.1,25.7-70.6-16.7-89c12.3,2.2,29.2,7.4,37.5,18.2
			c6.5,8.4,4.8,19.7,15.2,26.5c-1.3-42.7,33.8-110.8-18-138c26.9,2.4,45.7,20,53,50c3.4,14,1.5,30.1,6.4,43.3
			c3.9,10.6,11.8,18.6,18.7,27.5c-7.7-17.8-5.7-56.7,4.7-66.8c6.3,32.2,13.3,35.9,28.4,61.2c9.9,16.6,17,49.1,14.3,70.9
			c1.3-0.2,10.6-12.1,9-31.3C368.7,499.9,368.6,556.5,351.1,584.4z M356.2,526.4c0.9,16.4-24.3,46.4-31.9,25
			c-3.2-8.8,5-20.5,4.7-29.4c-0.3-11.3-8-22.5-15.7-27.8c9.5,20,7.2,32.4-5.9,48.1c-15.1,17.8-8.1,27.9-11.6,50
			c-2.1,12.7-10.7,22.2-10.7,22.2C351.4,609.4,359.4,547.8,356.2,526.4z"/>
	</g>
</g>
<g id="Layer_2">
</g>
</svg>
